# xmcd
#
# Track frame offsets:
#	150
#	27671
#	48001
#	67049
#	92024
#	115357
#	144299
#	168198
#	184887
#	203406
#	226499
#	254289
#	285339
#
# Disc length: 4093 seconds
#
# Revision: 0
# Processed by: cddbd v1.5.2PL0 Copyright (c) Steve Scherf et al.
# Submitted via: EasyCDDAExtractor 15.2.0.1
#
DISCID=ae0ffb0d
DTITLE=옹기장이 - Lord's Choir Worship Vol.1 "First Love"
DYEAR=2012
DGENRE=Gospel
TTITLE0=할렐루야 존귀하신 주(Hallelujah you're worthy)
TTITLE1=주를 아는 자(Oh how I love the name)
TTITLE2=예수는 왕 예수는 주(He is the king)
TTITLE3=주를 찬양하리(The alabamos senor) Feat.고경민
TTITLE4=내 영혼아 잠잠하라(Be still my soul) Feat.강찬, 김민정
TTITLE5=주를 따라 가는 것 Feat.홍의석
TTITLE6=주 은혜와 자비(I'll sing of Your Love) Feat.홍의석
TTITLE7=나의 등 뒤에서
TTITLE8=주 행하신 일(For all you've done)
TTITLE9=I Love You
TTITLE10=처음 사랑 Feat.주리, 손효규
TTITLE11=땅의 모든 끝이여
TTITLE12=주 이름 선포해(Declare your namer)
EXTD=
EXTT0=
EXTT1=
EXTT2=
EXTT3=
EXTT4=
EXTT5=
EXTT6=
EXTT7=
EXTT8=
EXTT9=
EXTT10=
EXTT11=
EXTT12=
PLAYORDER=
